<mxfile host="Electron" agent="Mozilla/5.0 (Windows NT 10.0; Win64; x64) AppleWebKit/537.36 (KHTML, like Gecko) draw.io/24.7.17 Chrome/128.0.6613.36 Electron/32.0.1 Safari/537.36" version="24.7.17" pages="3">
  <diagram id="C5RBs43oDa-KdzZeNtuy" name="Page-1">
    <mxGraphModel dx="2314" dy="836" grid="1" gridSize="10" guides="1" tooltips="1" connect="1" arrows="1" fold="1" page="1" pageScale="1" pageWidth="827" pageHeight="1169" math="0" shadow="0">
      <root>
        <mxCell id="WIyWlLk6GJQsqaUBKTNV-0" />
        <mxCell id="WIyWlLk6GJQsqaUBKTNV-1" parent="WIyWlLk6GJQsqaUBKTNV-0" />
        <mxCell id="WIyWlLk6GJQsqaUBKTNV-11" value="Manually parse out the section in the HTML webpage containing each of the individual CPU and GPU page&#39;s hyperlinks for the given year. Store this parsed out data into .txt. See&amp;nbsp;searching_hint_cpu.txt and&amp;nbsp;searching_hint_cpu.txt." style="rounded=1;whiteSpace=wrap;html=1;fontSize=12;glass=0;strokeWidth=1;shadow=0;" parent="WIyWlLk6GJQsqaUBKTNV-1" vertex="1">
          <mxGeometry x="160" y="250" width="310" height="100" as="geometry" />
        </mxCell>
        <mxCell id="Esp_Vv1ihvw1R9XzcpMX-0" value="" style="endArrow=classic;html=1;rounded=0;exitX=0.5;exitY=1;exitDx=0;exitDy=0;" edge="1" parent="WIyWlLk6GJQsqaUBKTNV-1">
          <mxGeometry width="50" height="50" relative="1" as="geometry">
            <mxPoint x="310" y="210" as="sourcePoint" />
            <mxPoint x="310" y="250" as="targetPoint" />
          </mxGeometry>
        </mxCell>
        <mxCell id="Esp_Vv1ihvw1R9XzcpMX-1" value="Run&amp;nbsp;&lt;span style=&quot;font-family: &amp;quot;Courier New&amp;quot;;&quot;&gt;./data/gpu_cpu_download.py&lt;/span&gt;&amp;nbsp;which imports&amp;nbsp;&lt;span style=&quot;font-family: &amp;quot;Courier New&amp;quot;;&quot;&gt;gpu_cpu_link_web_scrape.py&lt;/span&gt;&amp;nbsp;then goes and downloads indivdual gpu and cpu specification HTMLs based on the links Python list previously generated. Due to TechPowerUp server&#39;s rate limiter, a use of VPN was required to change public IP each time the rate limit has been hit. In that scenario, the script was required to be stopped, and the VPN location had to be changed before restarting the&amp;nbsp;&lt;span style=&quot;font-family: &amp;quot;Courier New&amp;quot;;&quot;&gt;./data/gpu_cpu_download.py&lt;/span&gt;&amp;nbsp;&amp;nbsp;script. This script uses a caching mechanism to prevent redownloading of previously downloaded spec sheets." style="rounded=1;whiteSpace=wrap;html=1;fontSize=12;glass=0;strokeWidth=1;shadow=0;" vertex="1" parent="WIyWlLk6GJQsqaUBKTNV-1">
          <mxGeometry x="122.5" y="650" width="405" height="170" as="geometry" />
        </mxCell>
        <mxCell id="Esp_Vv1ihvw1R9XzcpMX-3" value="Use either&amp;nbsp;&lt;font face=&quot;Courier New&quot;&gt;grab_parent_level_cpu_gpu_links_data.py&lt;/font&gt; or manual data collection to go through each permutation of TechPowerUp&#39;s CPU and GPU combination within a web browser based on the year and brand and save as HTML. Ensure each query is within 100 hits per query.&lt;div&gt;Save as &lt;font face=&quot;Courier New&quot;&gt;&amp;lt;year&amp;gt;_&amp;lt;brand&amp;gt;_database_TechPowerUp.html&lt;/font&gt;&lt;/div&gt;" style="rounded=1;whiteSpace=wrap;html=1;" vertex="1" parent="WIyWlLk6GJQsqaUBKTNV-1">
          <mxGeometry x="150" y="120" width="370" height="90" as="geometry" />
        </mxCell>
        <mxCell id="Esp_Vv1ihvw1R9XzcpMX-4" value="" style="endArrow=classic;html=1;rounded=0;exitX=0.5;exitY=1;exitDx=0;exitDy=0;" edge="1" parent="WIyWlLk6GJQsqaUBKTNV-1">
          <mxGeometry width="50" height="50" relative="1" as="geometry">
            <mxPoint x="310" y="350" as="sourcePoint" />
            <mxPoint x="310" y="390" as="targetPoint" />
          </mxGeometry>
        </mxCell>
        <mxCell id="Esp_Vv1ihvw1R9XzcpMX-5" value="Use &lt;font face=&quot;Courier New&quot;&gt;extract_cpu_specs_by_year.py&lt;/font&gt; and &lt;font face=&quot;Courier New&quot;&gt;extract_gpu_specs_by_year.py&lt;/font&gt; to generate Python lists containing each year&#39;s released CPU and GPU link suffixes. The outputs should be in &lt;font face=&quot;Courier New&quot;&gt;cpu_specs_links_list.txt &lt;/font&gt;and &lt;font face=&quot;Courier New&quot;&gt;gpu_specs_links.txt&lt;/font&gt;" style="rounded=1;whiteSpace=wrap;html=1;" vertex="1" parent="WIyWlLk6GJQsqaUBKTNV-1">
          <mxGeometry x="170" y="390" width="310" height="100" as="geometry" />
        </mxCell>
        <mxCell id="Esp_Vv1ihvw1R9XzcpMX-6" value="&lt;font style=&quot;font-size: 18px;&quot;&gt;Download top level TechPowerUp&lt;/font&gt;&lt;div&gt;&lt;font style=&quot;font-size: 18px;&quot;&gt;HTMLs&lt;/font&gt;&lt;/div&gt;" style="text;html=1;align=center;verticalAlign=middle;whiteSpace=wrap;rounded=0;" vertex="1" parent="WIyWlLk6GJQsqaUBKTNV-1">
          <mxGeometry x="570" y="130" width="170" height="60" as="geometry" />
        </mxCell>
        <mxCell id="Esp_Vv1ihvw1R9XzcpMX-7" value="&lt;font style=&quot;font-size: 18px;&quot;&gt;Parse top level TechPowerUp&lt;/font&gt;&lt;div&gt;&lt;font style=&quot;font-size: 18px;&quot;&gt;HTMLs&lt;/font&gt;&lt;/div&gt;" style="text;html=1;align=center;verticalAlign=middle;whiteSpace=wrap;rounded=0;" vertex="1" parent="WIyWlLk6GJQsqaUBKTNV-1">
          <mxGeometry x="570" y="260" width="170" height="60" as="geometry" />
        </mxCell>
        <mxCell id="Esp_Vv1ihvw1R9XzcpMX-8" value="&lt;span style=&quot;font-size: 18px;&quot;&gt;Convert HTML links into Python lists&lt;/span&gt;" style="text;html=1;align=center;verticalAlign=middle;whiteSpace=wrap;rounded=0;" vertex="1" parent="WIyWlLk6GJQsqaUBKTNV-1">
          <mxGeometry x="580" y="400" width="170" height="60" as="geometry" />
        </mxCell>
        <mxCell id="Esp_Vv1ihvw1R9XzcpMX-9" value="Merge outputs from&amp;nbsp;&lt;font face=&quot;Courier New&quot;&gt;cpu_specs_links_list.txt&amp;nbsp;&lt;/font&gt;and&amp;nbsp;&lt;font face=&quot;Courier New&quot;&gt;gpu_specs_links.txt&amp;nbsp;&lt;/font&gt;into &lt;font face=&quot;Courier New&quot;&gt;gpu_cpu_link_web_scrape.py&lt;/font&gt; so it is easily consumable by Python code.&amp;nbsp;" style="rounded=1;whiteSpace=wrap;html=1;" vertex="1" parent="WIyWlLk6GJQsqaUBKTNV-1">
          <mxGeometry x="80" y="530" width="460" height="80" as="geometry" />
        </mxCell>
        <mxCell id="Esp_Vv1ihvw1R9XzcpMX-10" value="" style="endArrow=classic;html=1;rounded=0;exitX=0.5;exitY=1;exitDx=0;exitDy=0;" edge="1" parent="WIyWlLk6GJQsqaUBKTNV-1">
          <mxGeometry width="50" height="50" relative="1" as="geometry">
            <mxPoint x="310" y="490" as="sourcePoint" />
            <mxPoint x="310" y="530" as="targetPoint" />
          </mxGeometry>
        </mxCell>
        <mxCell id="Esp_Vv1ihvw1R9XzcpMX-11" value="&lt;span style=&quot;font-size: 18px;&quot;&gt;Store HTML links into a Python file as Python lists&lt;/span&gt;" style="text;html=1;align=center;verticalAlign=middle;whiteSpace=wrap;rounded=0;" vertex="1" parent="WIyWlLk6GJQsqaUBKTNV-1">
          <mxGeometry x="590" y="530" width="170" height="60" as="geometry" />
        </mxCell>
        <mxCell id="Esp_Vv1ihvw1R9XzcpMX-12" value="&lt;span style=&quot;font-size: 18px;&quot;&gt;Download individual CPU and GPU HTML spec pages locally via caching. This step can take days!!!&lt;/span&gt;" style="text;html=1;align=center;verticalAlign=middle;whiteSpace=wrap;rounded=0;" vertex="1" parent="WIyWlLk6GJQsqaUBKTNV-1">
          <mxGeometry x="580" y="680" width="190" height="110" as="geometry" />
        </mxCell>
        <mxCell id="Esp_Vv1ihvw1R9XzcpMX-13" value="Use the &lt;font face=&quot;Courier New&quot;&gt;process_cpu_gpu_html_files.py&lt;/font&gt; script to finally iterate through all 5000+ HTML files downloaded locally onto machine to parse all the CPU/GPU details and store them into &lt;font face=&quot;Courier New&quot;&gt;cpu_data_original.csv&lt;/font&gt; and &lt;font face=&quot;Courier New&quot;&gt;gpu_data_original.csv&lt;/font&gt;." style="rounded=1;whiteSpace=wrap;html=1;" vertex="1" parent="WIyWlLk6GJQsqaUBKTNV-1">
          <mxGeometry x="165" y="860" width="320" height="120" as="geometry" />
        </mxCell>
        <mxCell id="IM8Nb13rTrj5SgrWcA-M-0" value="" style="endArrow=classic;html=1;rounded=0;exitX=0.5;exitY=1;exitDx=0;exitDy=0;" edge="1" parent="WIyWlLk6GJQsqaUBKTNV-1">
          <mxGeometry width="50" height="50" relative="1" as="geometry">
            <mxPoint x="309.5" y="610" as="sourcePoint" />
            <mxPoint x="309.5" y="650" as="targetPoint" />
          </mxGeometry>
        </mxCell>
        <mxCell id="IM8Nb13rTrj5SgrWcA-M-1" value="" style="endArrow=classic;html=1;rounded=0;exitX=0.5;exitY=1;exitDx=0;exitDy=0;" edge="1" parent="WIyWlLk6GJQsqaUBKTNV-1">
          <mxGeometry width="50" height="50" relative="1" as="geometry">
            <mxPoint x="309.5" y="820" as="sourcePoint" />
            <mxPoint x="309.5" y="860" as="targetPoint" />
          </mxGeometry>
        </mxCell>
        <mxCell id="IM8Nb13rTrj5SgrWcA-M-2" value="&lt;span style=&quot;font-size: 18px;&quot;&gt;Process over 5000 locally downloaded HTML data into two CSV files for CPU and GPU&lt;/span&gt;" style="text;html=1;align=center;verticalAlign=middle;whiteSpace=wrap;rounded=0;" vertex="1" parent="WIyWlLk6GJQsqaUBKTNV-1">
          <mxGeometry x="575" y="850" width="200" height="110" as="geometry" />
        </mxCell>
      </root>
    </mxGraphModel>
  </diagram>
  <diagram id="L__6Dbw8f7tj2bKp2md-" name="Page-2">
    <mxGraphModel dx="2314" dy="836" grid="1" gridSize="10" guides="1" tooltips="1" connect="1" arrows="1" fold="1" page="1" pageScale="1" pageWidth="850" pageHeight="1100" math="0" shadow="0">
      <root>
        <mxCell id="0" />
        <mxCell id="1" parent="0" />
        <mxCell id="-6euVLJiRtAac--v17Nf-1" value="Intel CPU 2023" style="rounded=1;whiteSpace=wrap;html=1;" vertex="1" parent="1">
          <mxGeometry x="90" y="415" width="120" height="60" as="geometry" />
        </mxCell>
        <mxCell id="-6euVLJiRtAac--v17Nf-2" value="Intel CPU 2021" style="rounded=1;whiteSpace=wrap;html=1;" vertex="1" parent="1">
          <mxGeometry x="90" y="585" width="120" height="60" as="geometry" />
        </mxCell>
        <mxCell id="-6euVLJiRtAac--v17Nf-3" value="Intel CPU 2014" style="rounded=1;whiteSpace=wrap;html=1;" vertex="1" parent="1">
          <mxGeometry x="90" y="770" width="120" height="60" as="geometry" />
        </mxCell>
        <mxCell id="-6euVLJiRtAac--v17Nf-6" value="&lt;span style=&quot;font-size: 18px;&quot;&gt;Techpowerup website has a limit of 100 results per query. Hence I needed to filter and grab various endpoint queries to obtain&amp;nbsp;&lt;/span&gt;&lt;b style=&quot;font-size: 18px;&quot;&gt;ALL&lt;/b&gt;&lt;span style=&quot;font-size: 18px;&quot;&gt;&amp;nbsp;cpu data.&lt;/span&gt;" style="rounded=0;whiteSpace=wrap;html=1;" vertex="1" parent="1">
          <mxGeometry x="120" y="20" width="270" height="120" as="geometry" />
        </mxCell>
        <mxCell id="-6euVLJiRtAac--v17Nf-7" value="" style="endArrow=classic;html=1;rounded=0;" edge="1" parent="1">
          <mxGeometry width="50" height="50" relative="1" as="geometry">
            <mxPoint x="210" y="430" as="sourcePoint" />
            <mxPoint x="320" y="370" as="targetPoint" />
          </mxGeometry>
        </mxCell>
        <mxCell id="-6euVLJiRtAac--v17Nf-9" value="" style="endArrow=classic;html=1;rounded=0;exitX=1.008;exitY=0.617;exitDx=0;exitDy=0;exitPerimeter=0;" edge="1" parent="1" source="-6euVLJiRtAac--v17Nf-1">
          <mxGeometry width="50" height="50" relative="1" as="geometry">
            <mxPoint x="410" y="600" as="sourcePoint" />
            <mxPoint x="320" y="480" as="targetPoint" />
          </mxGeometry>
        </mxCell>
        <mxCell id="-6euVLJiRtAac--v17Nf-18" value="&lt;span style=&quot;font-size: 11px; text-wrap: nowrap; background-color: rgb(255, 255, 255);&quot;&gt;not mobile&lt;/span&gt;&lt;div style=&quot;font-size: 11px; text-wrap: nowrap;&quot;&gt;143 hits&lt;/div&gt;" style="rounded=1;whiteSpace=wrap;html=1;" vertex="1" parent="1">
          <mxGeometry x="320" y="450" width="70" height="50" as="geometry" />
        </mxCell>
        <mxCell id="-6euVLJiRtAac--v17Nf-19" value="&lt;span style=&quot;font-size: 11px; text-wrap: nowrap; background-color: rgb(255, 255, 255);&quot;&gt;is mobile&lt;/span&gt;&lt;div style=&quot;font-size: 11px; text-wrap: nowrap;&quot;&gt;19 hits&lt;/div&gt;" style="rounded=1;whiteSpace=wrap;html=1;" vertex="1" parent="1">
          <mxGeometry x="320" y="340" width="70" height="50" as="geometry" />
        </mxCell>
        <mxCell id="-6euVLJiRtAac--v17Nf-20" value="" style="endArrow=classic;html=1;rounded=0;" edge="1" parent="1">
          <mxGeometry width="50" height="50" relative="1" as="geometry">
            <mxPoint x="210" y="610" as="sourcePoint" />
            <mxPoint x="320" y="550" as="targetPoint" />
          </mxGeometry>
        </mxCell>
        <mxCell id="-6euVLJiRtAac--v17Nf-21" value="" style="endArrow=classic;html=1;rounded=0;exitX=1.008;exitY=0.617;exitDx=0;exitDy=0;exitPerimeter=0;" edge="1" parent="1">
          <mxGeometry width="50" height="50" relative="1" as="geometry">
            <mxPoint x="211" y="632" as="sourcePoint" />
            <mxPoint x="320" y="660" as="targetPoint" />
          </mxGeometry>
        </mxCell>
        <mxCell id="-6euVLJiRtAac--v17Nf-22" value="&lt;span style=&quot;font-size: 11px; text-wrap: nowrap; background-color: rgb(255, 255, 255);&quot;&gt;not mobile&lt;/span&gt;&lt;div style=&quot;font-size: 11px; text-wrap: nowrap;&quot;&gt;107 hits&lt;/div&gt;" style="rounded=1;whiteSpace=wrap;html=1;" vertex="1" parent="1">
          <mxGeometry x="320" y="630" width="70" height="50" as="geometry" />
        </mxCell>
        <mxCell id="-6euVLJiRtAac--v17Nf-23" value="&lt;span style=&quot;font-size: 11px; text-wrap: nowrap; background-color: rgb(255, 255, 255);&quot;&gt;is mobile&lt;/span&gt;&lt;div style=&quot;font-size: 11px; text-wrap: nowrap;&quot;&gt;19 hits&lt;/div&gt;" style="rounded=1;whiteSpace=wrap;html=1;" vertex="1" parent="1">
          <mxGeometry x="320" y="530" width="70" height="50" as="geometry" />
        </mxCell>
        <mxCell id="-6euVLJiRtAac--v17Nf-24" value="" style="endArrow=classic;html=1;rounded=0;" edge="1" parent="1">
          <mxGeometry width="50" height="50" relative="1" as="geometry">
            <mxPoint x="390" y="460" as="sourcePoint" />
            <mxPoint x="500" y="400" as="targetPoint" />
          </mxGeometry>
        </mxCell>
        <mxCell id="-6euVLJiRtAac--v17Nf-25" value="&lt;span style=&quot;font-size: 11px; text-wrap: nowrap; background-color: rgb(255, 255, 255);&quot;&gt;socket = Intel BGA 2579, 1 hit&lt;/span&gt;" style="rounded=1;whiteSpace=wrap;html=1;" vertex="1" parent="1">
          <mxGeometry x="500" y="380" width="180" height="30" as="geometry" />
        </mxCell>
        <mxCell id="-6euVLJiRtAac--v17Nf-26" value="" style="endArrow=classic;html=1;rounded=0;exitX=1;exitY=0.5;exitDx=0;exitDy=0;entryX=0;entryY=0.5;entryDx=0;entryDy=0;" edge="1" parent="1" source="-6euVLJiRtAac--v17Nf-18" target="-6euVLJiRtAac--v17Nf-27">
          <mxGeometry width="50" height="50" relative="1" as="geometry">
            <mxPoint x="400" y="470" as="sourcePoint" />
            <mxPoint x="510" y="450" as="targetPoint" />
          </mxGeometry>
        </mxCell>
        <mxCell id="-6euVLJiRtAac--v17Nf-27" value="&lt;span style=&quot;font-size: 11px; text-wrap: nowrap; background-color: rgb(255, 255, 255);&quot;&gt;socket = Intel BGA 1700, 42 hits&lt;/span&gt;" style="rounded=1;whiteSpace=wrap;html=1;" vertex="1" parent="1">
          <mxGeometry x="500" y="430" width="180" height="30" as="geometry" />
        </mxCell>
        <mxCell id="-6euVLJiRtAac--v17Nf-28" value="&lt;span style=&quot;font-size: 11px; text-wrap: nowrap; background-color: rgb(255, 255, 255);&quot;&gt;socket = Intel BGA 4677, 100 hits&lt;/span&gt;" style="rounded=1;whiteSpace=wrap;html=1;" vertex="1" parent="1">
          <mxGeometry x="500" y="475" width="180" height="30" as="geometry" />
        </mxCell>
        <mxCell id="-6euVLJiRtAac--v17Nf-29" value="" style="endArrow=classic;html=1;rounded=0;exitX=1;exitY=0.75;exitDx=0;exitDy=0;entryX=0;entryY=0.5;entryDx=0;entryDy=0;" edge="1" parent="1" source="-6euVLJiRtAac--v17Nf-18" target="-6euVLJiRtAac--v17Nf-28">
          <mxGeometry width="50" height="50" relative="1" as="geometry">
            <mxPoint x="470" y="610" as="sourcePoint" />
            <mxPoint x="580" y="580" as="targetPoint" />
          </mxGeometry>
        </mxCell>
        <mxCell id="-6euVLJiRtAac--v17Nf-34" value="&lt;span style=&quot;font-size: 11px; text-wrap: nowrap; background-color: rgb(255, 255, 255);&quot;&gt;is server type, 71 hits&lt;/span&gt;" style="rounded=1;whiteSpace=wrap;html=1;" vertex="1" parent="1">
          <mxGeometry x="500" y="625" width="180" height="30" as="geometry" />
        </mxCell>
        <mxCell id="-6euVLJiRtAac--v17Nf-35" value="&lt;span style=&quot;font-size: 11px; text-wrap: nowrap; background-color: rgb(255, 255, 255);&quot;&gt;is not server type, 36 hits&lt;/span&gt;" style="rounded=1;whiteSpace=wrap;html=1;" vertex="1" parent="1">
          <mxGeometry x="500" y="675" width="180" height="30" as="geometry" />
        </mxCell>
        <mxCell id="-6euVLJiRtAac--v17Nf-36" value="" style="endArrow=classic;html=1;rounded=0;exitX=1;exitY=0.25;exitDx=0;exitDy=0;entryX=0;entryY=0.5;entryDx=0;entryDy=0;" edge="1" parent="1" target="-6euVLJiRtAac--v17Nf-34">
          <mxGeometry width="50" height="50" relative="1" as="geometry">
            <mxPoint x="390" y="648" as="sourcePoint" />
            <mxPoint x="510" y="560" as="targetPoint" />
          </mxGeometry>
        </mxCell>
        <mxCell id="-6euVLJiRtAac--v17Nf-37" value="" style="endArrow=classic;html=1;rounded=0;exitX=1;exitY=0.5;exitDx=0;exitDy=0;entryX=0;entryY=0.5;entryDx=0;entryDy=0;" edge="1" parent="1" target="-6euVLJiRtAac--v17Nf-35">
          <mxGeometry width="50" height="50" relative="1" as="geometry">
            <mxPoint x="390" y="660" as="sourcePoint" />
            <mxPoint x="510" y="650" as="targetPoint" />
          </mxGeometry>
        </mxCell>
        <mxCell id="-6euVLJiRtAac--v17Nf-38" value="" style="endArrow=classic;html=1;rounded=0;" edge="1" parent="1">
          <mxGeometry width="50" height="50" relative="1" as="geometry">
            <mxPoint x="210" y="785" as="sourcePoint" />
            <mxPoint x="320" y="725" as="targetPoint" />
          </mxGeometry>
        </mxCell>
        <mxCell id="-6euVLJiRtAac--v17Nf-39" value="" style="endArrow=classic;html=1;rounded=0;exitX=1.008;exitY=0.617;exitDx=0;exitDy=0;exitPerimeter=0;" edge="1" parent="1">
          <mxGeometry width="50" height="50" relative="1" as="geometry">
            <mxPoint x="211" y="807" as="sourcePoint" />
            <mxPoint x="320" y="835" as="targetPoint" />
          </mxGeometry>
        </mxCell>
        <mxCell id="-6euVLJiRtAac--v17Nf-40" value="&lt;span style=&quot;font-size: 11px; text-wrap: nowrap; background-color: rgb(255, 255, 255);&quot;&gt;not mobile&lt;/span&gt;&lt;div style=&quot;font-size: 11px; text-wrap: nowrap;&quot;&gt;143 hits&lt;/div&gt;" style="rounded=1;whiteSpace=wrap;html=1;" vertex="1" parent="1">
          <mxGeometry x="320" y="805" width="70" height="50" as="geometry" />
        </mxCell>
        <mxCell id="-6euVLJiRtAac--v17Nf-41" value="&lt;span style=&quot;font-size: 11px; text-wrap: nowrap; background-color: rgb(255, 255, 255);&quot;&gt;is mobile&lt;/span&gt;&lt;div style=&quot;font-size: 11px; text-wrap: nowrap;&quot;&gt;19 hits&lt;/div&gt;" style="rounded=1;whiteSpace=wrap;html=1;" vertex="1" parent="1">
          <mxGeometry x="320" y="705" width="70" height="50" as="geometry" />
        </mxCell>
        <mxCell id="-6euVLJiRtAac--v17Nf-42" value="&lt;span style=&quot;font-size: 11px; text-wrap: nowrap; background-color: rgb(255, 255, 255);&quot;&gt;is server type, 62 hits&lt;/span&gt;" style="rounded=1;whiteSpace=wrap;html=1;" vertex="1" parent="1">
          <mxGeometry x="500" y="800" width="180" height="30" as="geometry" />
        </mxCell>
        <mxCell id="-6euVLJiRtAac--v17Nf-43" value="&lt;span style=&quot;font-size: 11px; text-wrap: nowrap; background-color: rgb(255, 255, 255);&quot;&gt;is not server type, 39 hits&lt;/span&gt;" style="rounded=1;whiteSpace=wrap;html=1;" vertex="1" parent="1">
          <mxGeometry x="500" y="850" width="180" height="30" as="geometry" />
        </mxCell>
        <mxCell id="-6euVLJiRtAac--v17Nf-44" value="" style="endArrow=classic;html=1;rounded=0;exitX=1;exitY=0.25;exitDx=0;exitDy=0;entryX=0;entryY=0.5;entryDx=0;entryDy=0;" edge="1" parent="1" target="-6euVLJiRtAac--v17Nf-42">
          <mxGeometry width="50" height="50" relative="1" as="geometry">
            <mxPoint x="390" y="823" as="sourcePoint" />
            <mxPoint x="510" y="735" as="targetPoint" />
          </mxGeometry>
        </mxCell>
        <mxCell id="-6euVLJiRtAac--v17Nf-45" value="" style="endArrow=classic;html=1;rounded=0;exitX=1;exitY=0.5;exitDx=0;exitDy=0;entryX=0;entryY=0.5;entryDx=0;entryDy=0;" edge="1" parent="1" target="-6euVLJiRtAac--v17Nf-43">
          <mxGeometry width="50" height="50" relative="1" as="geometry">
            <mxPoint x="390" y="835" as="sourcePoint" />
            <mxPoint x="510" y="825" as="targetPoint" />
          </mxGeometry>
        </mxCell>
        <mxCell id="-6euVLJiRtAac--v17Nf-46" value="Intel CPU 2012" style="rounded=1;whiteSpace=wrap;html=1;" vertex="1" parent="1">
          <mxGeometry x="90" y="945" width="120" height="60" as="geometry" />
        </mxCell>
        <mxCell id="-6euVLJiRtAac--v17Nf-47" value="" style="endArrow=classic;html=1;rounded=0;" edge="1" parent="1">
          <mxGeometry width="50" height="50" relative="1" as="geometry">
            <mxPoint x="210" y="960" as="sourcePoint" />
            <mxPoint x="320" y="900" as="targetPoint" />
          </mxGeometry>
        </mxCell>
        <mxCell id="-6euVLJiRtAac--v17Nf-48" value="" style="endArrow=classic;html=1;rounded=0;entryX=0;entryY=0.5;entryDx=0;entryDy=0;" edge="1" parent="1" target="-6euVLJiRtAac--v17Nf-49">
          <mxGeometry width="50" height="50" relative="1" as="geometry">
            <mxPoint x="210" y="980" as="sourcePoint" />
            <mxPoint x="310" y="1008" as="targetPoint" />
          </mxGeometry>
        </mxCell>
        <mxCell id="-6euVLJiRtAac--v17Nf-49" value="&lt;span style=&quot;font-size: 11px; text-wrap: nowrap; background-color: rgb(255, 255, 255);&quot;&gt;not mobile&lt;/span&gt;&lt;div style=&quot;font-size: 11px; text-wrap: nowrap;&quot;&gt;143 hits&lt;/div&gt;" style="rounded=1;whiteSpace=wrap;html=1;" vertex="1" parent="1">
          <mxGeometry x="320" y="980" width="70" height="50" as="geometry" />
        </mxCell>
        <mxCell id="-6euVLJiRtAac--v17Nf-50" value="&lt;span style=&quot;font-size: 11px; text-wrap: nowrap; background-color: rgb(255, 255, 255);&quot;&gt;is server type, 67 hits&lt;/span&gt;" style="rounded=1;whiteSpace=wrap;html=1;" vertex="1" parent="1">
          <mxGeometry x="490" y="975" width="180" height="30" as="geometry" />
        </mxCell>
        <mxCell id="-6euVLJiRtAac--v17Nf-51" value="&lt;span style=&quot;font-size: 11px; text-wrap: nowrap; background-color: rgb(255, 255, 255);&quot;&gt;is not server type, 45 hits&lt;/span&gt;" style="rounded=1;whiteSpace=wrap;html=1;" vertex="1" parent="1">
          <mxGeometry x="490" y="1025" width="180" height="30" as="geometry" />
        </mxCell>
        <mxCell id="-6euVLJiRtAac--v17Nf-52" value="" style="endArrow=classic;html=1;rounded=0;entryX=0;entryY=0.5;entryDx=0;entryDy=0;" edge="1" parent="1" target="-6euVLJiRtAac--v17Nf-50">
          <mxGeometry width="50" height="50" relative="1" as="geometry">
            <mxPoint x="390" y="1000" as="sourcePoint" />
            <mxPoint x="500" y="910" as="targetPoint" />
          </mxGeometry>
        </mxCell>
        <mxCell id="-6euVLJiRtAac--v17Nf-53" value="" style="endArrow=classic;html=1;rounded=0;exitX=1;exitY=0.75;exitDx=0;exitDy=0;entryX=0;entryY=0.5;entryDx=0;entryDy=0;" edge="1" parent="1" target="-6euVLJiRtAac--v17Nf-51" source="-6euVLJiRtAac--v17Nf-49">
          <mxGeometry width="50" height="50" relative="1" as="geometry">
            <mxPoint x="380" y="1010" as="sourcePoint" />
            <mxPoint x="500" y="1000" as="targetPoint" />
          </mxGeometry>
        </mxCell>
        <mxCell id="-6euVLJiRtAac--v17Nf-54" value="&lt;span style=&quot;font-size: 11px; text-wrap: nowrap; background-color: rgb(255, 255, 255);&quot;&gt;is mobile&lt;/span&gt;&lt;div style=&quot;font-size: 11px; text-wrap: nowrap;&quot;&gt;19 hits&lt;/div&gt;" style="rounded=1;whiteSpace=wrap;html=1;" vertex="1" parent="1">
          <mxGeometry x="320" y="880" width="70" height="50" as="geometry" />
        </mxCell>
        <mxCell id="-6euVLJiRtAac--v17Nf-55" value="CPU YYYY" style="rounded=1;whiteSpace=wrap;html=1;" vertex="1" parent="1">
          <mxGeometry x="90" y="230" width="120" height="60" as="geometry" />
        </mxCell>
        <mxCell id="-6euVLJiRtAac--v17Nf-57" value="" style="endArrow=classic;html=1;rounded=0;" edge="1" parent="1">
          <mxGeometry width="50" height="50" relative="1" as="geometry">
            <mxPoint x="210" y="250" as="sourcePoint" />
            <mxPoint x="320" y="190" as="targetPoint" />
          </mxGeometry>
        </mxCell>
        <mxCell id="-6euVLJiRtAac--v17Nf-58" value="" style="endArrow=classic;html=1;rounded=0;exitX=1.008;exitY=0.617;exitDx=0;exitDy=0;exitPerimeter=0;" edge="1" parent="1">
          <mxGeometry width="50" height="50" relative="1" as="geometry">
            <mxPoint x="211" y="272" as="sourcePoint" />
            <mxPoint x="320" y="300" as="targetPoint" />
          </mxGeometry>
        </mxCell>
        <mxCell id="-6euVLJiRtAac--v17Nf-59" value="&lt;span style=&quot;font-size: 11px; text-wrap: nowrap; background-color: rgb(255, 255, 255);&quot;&gt;Intel CPUs, less than 101 hits&amp;nbsp;&lt;/span&gt;&lt;span style=&quot;text-wrap: nowrap; font-size: 11px; background-color: rgb(255, 255, 255);&quot;&gt;(there were four years&amp;nbsp;&lt;/span&gt;&lt;div&gt;&lt;span style=&quot;font-size: 11px; text-wrap: nowrap; background-color: rgb(255, 255, 255);&quot;&gt;which this was not the case and was handled accordingly)&lt;/span&gt;&lt;/div&gt;" style="rounded=1;whiteSpace=wrap;html=1;" vertex="1" parent="1">
          <mxGeometry x="320" y="250" width="310" height="70" as="geometry" />
        </mxCell>
        <mxCell id="-6euVLJiRtAac--v17Nf-60" value="&lt;span style=&quot;font-size: 11px; text-wrap: nowrap; background-color: rgb(255, 255, 255);&quot;&gt;AMD CPUs, less than 101 hits (there were two years&amp;nbsp;&lt;/span&gt;&lt;div&gt;&lt;span style=&quot;font-size: 11px; text-wrap: nowrap; background-color: rgb(255, 255, 255);&quot;&gt;which this was not the case and was handled accordingly, split by is or is not mobile)&lt;/span&gt;&lt;/div&gt;" style="rounded=1;whiteSpace=wrap;html=1;" vertex="1" parent="1">
          <mxGeometry x="320" y="160" width="420" height="70" as="geometry" />
        </mxCell>
        <mxCell id="-6euVLJiRtAac--v17Nf-61" value="&lt;span style=&quot;font-size: 18px;&quot;&gt;Example url might looks like:&amp;nbsp;https://www.techpowerup.com/cpu-specs/?mfgr=AMD&amp;amp;released=2023&amp;amp;mobile=No&amp;amp;sort=name&lt;/span&gt;" style="rounded=0;whiteSpace=wrap;html=1;" vertex="1" parent="1">
          <mxGeometry x="400" y="20" width="430" height="120" as="geometry" />
        </mxCell>
      </root>
    </mxGraphModel>
  </diagram>
  <diagram id="Qzy8rzFxQuqEXCqjSylI" name="Page-3">
    <mxGraphModel dx="2314" dy="836" grid="1" gridSize="10" guides="1" tooltips="1" connect="1" arrows="1" fold="1" page="1" pageScale="1" pageWidth="850" pageHeight="1100" math="0" shadow="0">
      <root>
        <mxCell id="0" />
        <mxCell id="1" parent="0" />
        <mxCell id="CSf91JC3w8xR7OaKhkdu-1" value="GPU YYYY" style="rounded=1;whiteSpace=wrap;html=1;" vertex="1" parent="1">
          <mxGeometry x="90" y="230" width="120" height="60" as="geometry" />
        </mxCell>
        <mxCell id="CSf91JC3w8xR7OaKhkdu-2" value="" style="endArrow=classic;html=1;rounded=0;" edge="1" parent="1">
          <mxGeometry width="50" height="50" relative="1" as="geometry">
            <mxPoint x="210" y="250" as="sourcePoint" />
            <mxPoint x="320" y="190" as="targetPoint" />
          </mxGeometry>
        </mxCell>
        <mxCell id="CSf91JC3w8xR7OaKhkdu-3" value="" style="endArrow=classic;html=1;rounded=0;exitX=1.008;exitY=0.617;exitDx=0;exitDy=0;exitPerimeter=0;" edge="1" parent="1">
          <mxGeometry width="50" height="50" relative="1" as="geometry">
            <mxPoint x="211" y="272" as="sourcePoint" />
            <mxPoint x="320" y="380" as="targetPoint" />
          </mxGeometry>
        </mxCell>
        <mxCell id="CSf91JC3w8xR7OaKhkdu-4" value="&lt;span style=&quot;font-size: 11px; text-wrap: nowrap; background-color: rgb(255, 255, 255);&quot;&gt;NVIDIA&amp;nbsp;&lt;/span&gt;&lt;span style=&quot;font-size: 11px; text-wrap: nowrap; background-color: rgb(255, 255, 255);&quot;&gt;GPUs, less than 101 hits all years&lt;/span&gt;" style="rounded=1;whiteSpace=wrap;html=1;" vertex="1" parent="1">
          <mxGeometry x="320" y="340" width="310" height="70" as="geometry" />
        </mxCell>
        <mxCell id="CSf91JC3w8xR7OaKhkdu-5" value="&lt;span style=&quot;font-size: 11px; text-wrap: nowrap; background-color: rgb(255, 255, 255);&quot;&gt;AMD GPUs, less than 101 hits all years&lt;/span&gt;" style="rounded=1;whiteSpace=wrap;html=1;" vertex="1" parent="1">
          <mxGeometry x="320" y="160" width="420" height="70" as="geometry" />
        </mxCell>
        <mxCell id="CSf91JC3w8xR7OaKhkdu-6" value="&lt;span style=&quot;font-size: 11px; text-wrap: nowrap; background-color: rgb(255, 255, 255);&quot;&gt;Intel&lt;/span&gt;&lt;span style=&quot;font-size: 11px; text-wrap: nowrap; background-color: rgb(255, 255, 255);&quot;&gt;&amp;nbsp;GPUs, less than 101 hits all years&lt;/span&gt;" style="rounded=1;whiteSpace=wrap;html=1;" vertex="1" parent="1">
          <mxGeometry x="320" y="240" width="310" height="70" as="geometry" />
        </mxCell>
        <mxCell id="CSf91JC3w8xR7OaKhkdu-7" value="" style="endArrow=classic;html=1;rounded=0;exitX=1;exitY=0.5;exitDx=0;exitDy=0;entryX=0;entryY=0.5;entryDx=0;entryDy=0;" edge="1" parent="1" source="CSf91JC3w8xR7OaKhkdu-1" target="CSf91JC3w8xR7OaKhkdu-6">
          <mxGeometry width="50" height="50" relative="1" as="geometry">
            <mxPoint x="220" y="260" as="sourcePoint" />
            <mxPoint x="330" y="200" as="targetPoint" />
          </mxGeometry>
        </mxCell>
      </root>
    </mxGraphModel>
  </diagram>
</mxfile>
